<svg width="34" height="36" viewBox="0 0 34 36" fill="none" xmlns="http://www.w3.org/2000/svg">
<path d="M22.4509 27.8462V29.0769C22.4509 30.3826 21.8768 31.6348 20.8547 32.5581C19.8326 33.4813 18.4464 34 17.001 34C15.5556 34 14.1694 33.4813 13.1473 32.5581C12.1253 31.6348 11.5511 30.3826 11.5511 29.0769V27.8462M31.6204 25.3408C29.4337 22.9231 27.8898 21.6923 27.8898 15.0269C27.8898 8.92308 24.4393 6.74846 21.5994 5.69231C21.2222 5.55231 20.8671 5.23077 20.7521 4.88077C20.2539 3.34923 18.8574 2 17.001 2C15.1446 2 13.7472 3.35 13.2542 4.88231C13.1392 5.23615 12.7841 5.55231 12.4069 5.69231C9.56357 6.75 6.1165 8.91692 6.1165 15.0269C6.11224 21.6923 4.56838 22.9231 2.3816 25.3408C1.47555 26.3423 2.26919 27.8462 3.85393 27.8462H30.1566C31.7328 27.8462 32.5214 26.3377 31.6204 25.3408Z" stroke="white" stroke-width="3" stroke-linecap="round" stroke-linejoin="round"/>
</svg>
