<svg width="31" height="30" viewBox="0 0 31 30" fill="none" xmlns="http://www.w3.org/2000/svg">
<path d="M20.3571 2.59341e-07C18.8514 -0.000345059 17.3664 0.352035 16.0213 1.0289C14.6762 1.70577 13.5084 2.6883 12.6114 3.89777C11.7144 5.10723 11.1132 6.50999 10.856 7.99365C10.5987 9.4773 10.6926 11.0006 11.13 12.4414L0 23.5714V30H6.42857L17.5586 18.87C18.8849 19.2726 20.2824 19.3845 21.6559 19.1982C23.0294 19.0118 24.3466 18.5315 25.5177 17.79C26.6888 17.0486 27.6862 16.0634 28.4421 14.9015C29.198 13.7397 29.6946 12.4286 29.8979 11.0575C30.1012 9.68641 30.0066 8.28761 29.6205 6.9564C29.2343 5.6252 28.5657 4.39289 27.6602 3.34346C26.7547 2.29402 25.6336 1.45213 24.3734 0.875154C23.1131 0.298178 21.7432 -0.000321186 20.3571 2.59341e-07ZM20.3571 17.1429C19.6195 17.1425 18.8859 17.0334 18.18 16.8193L16.9511 16.4464L16.0436 17.3539L12.6354 20.7621L11.1579 19.2857L9.64286 20.8007L11.1204 22.2782L9.42107 23.9775L7.94357 22.5L6.42857 24.015L7.90607 25.4925L5.54143 27.8571H2.14286V24.4586L12.645 13.9564L13.5536 13.0489L13.1807 11.82C12.7228 10.3103 12.7525 8.69473 13.2657 7.20296C13.7789 5.7112 14.7495 4.41924 16.0393 3.51089C17.3292 2.60253 18.8726 2.12402 20.45 2.14342C22.0275 2.16283 23.5587 2.67917 24.8258 3.61898C26.0928 4.5588 27.0313 5.87424 27.5077 7.37818C27.984 8.88212 27.974 10.498 27.4791 11.9959C26.9841 13.4938 26.0294 14.7976 24.7508 15.7216C23.4722 16.6457 21.9347 17.143 20.3571 17.1429Z" fill="white"/>
<path d="M21.4286 10.7143C22.612 10.7143 23.5714 9.75491 23.5714 8.57145C23.5714 7.38798 22.612 6.42859 21.4286 6.42859C20.2451 6.42859 19.2857 7.38798 19.2857 8.57145C19.2857 9.75491 20.2451 10.7143 21.4286 10.7143Z" fill="white"/>
</svg>
